<svg id="Слой_1" data-name="Слой 1" xmlns="http://www.w3.org/2000/svg" xmlns:xlink="http://www.w3.org/1999/xlink" width="308.3" height="84.8" viewBox="0 0 308.3 84.8"><defs><style>.cls-1{fill:#2681c4;}.cls-2{fill:#004777;}.cls-3{fill:url(#Безымянный_градиент_3);}.cls-4{fill:#1a6fad;}</style><linearGradient id="Безымянный_градиент_3" x1="86.62" y1="38.19" x2="86.62" y2="38.19" gradientTransform="matrix(1, 0, 0, -1, 0, 57.5)" gradientUnits="userSpaceOnUse"><stop offset="0" stop-color="#2681c4"/><stop offset="0.13" stop-color="#257fc1"/><stop offset="0.24" stop-color="#2378b6"/><stop offset="0.34" stop-color="#1f6ca5"/><stop offset="0.44" stop-color="#195c8c"/><stop offset="0.53" stop-color="#11476d"/><stop offset="0.58" stop-color="#0c3957"/><stop offset="0.95" stop-color="#0c3957"/><stop offset="1" stop-color="#093855"/></linearGradient></defs><path class="cls-1" d="M6.52,66.41,4.32,58a1,1,0,0,0,.4-.5,1.48,1.48,0,0,0,.1-.7.71.71,0,0,0-.3-.6.92.92,0,0,0-.6-.4V30.51h-.8v25.3a2.09,2.09,0,0,0-.6.4l-.3.6a1.7,1.7,0,0,0,.1.7,1,1,0,0,0,.4.5l-2.2,8.4Z" transform="translate(-0.52 -0.01)"/><path class="cls-2" d="M80.92,42v20.6h-6.5V46.91h-6.3v15.7h-6.4V42Z" transform="translate(-0.52 -0.01)"/><path class="cls-2" d="M91,54.31c.2,2.7,2.8,3.9,5.8,3.9a21.79,21.79,0,0,0,5.7-.8l.8,4.3a21.38,21.38,0,0,1-7.5,1.3c-7,0-11-4-11-10.5,0-5.2,3.3-11,10.5-11,6.7,0,9.2,5.2,9.2,10.3a21.05,21.05,0,0,1-.2,2.5Zm7.5-4.3c0-1.6-.7-4.2-3.6-4.2-2.7,0-3.8,2.4-4,4.2Z" transform="translate(-0.52 -0.01)"/><path class="cls-2" d="M114.72,42v15.7h6.4V42h6.4v16.1l2.3.1-.3,11.1h-4.8l-.2-6.7h-16.3V42Z" transform="translate(-0.52 -0.01)"/><path class="cls-2" d="M139.32,42v6.3c0,3.3-.2,5.6-.3,8.4h.2c1-2.4,1.5-4,2.4-5.9l4-8.9h7.9v20.6h-6.1v-6.3c0-3.2.2-4.6.4-8.9h-.3a59.49,59.49,0,0,1-2.2,5.6c-1.3,2.9-2.9,6.4-4.3,9.7h-7.8V42Z" transform="translate(-0.52 -0.01)"/><path class="cls-2" d="M170.32,62.61l-.4-2.1h-.1a7.69,7.69,0,0,1-5.9,2.5,6.31,6.31,0,0,1-6.7-6.3c0-5.4,4.8-7.9,12.1-7.9v-.3c0-1.1-.6-2.7-3.8-2.7a11.39,11.39,0,0,0-5.7,1.6l-1.2-4.1a17.07,17.07,0,0,1,8-1.8c6.9,0,9.1,4,9.1,8.9v7.2a32.45,32.45,0,0,0,.3,5Zm-.8-9.7c-3.4,0-6,.8-6,3.2a2.28,2.28,0,0,0,2.5,2.4,3.94,3.94,0,0,0,2.1-.6,3.15,3.15,0,0,0,1.3-1.7,4.1,4.1,0,0,0,.1-1.1v-2.2Z" transform="translate(-0.52 -0.01)"/><path class="cls-2" d="M199.12,42v20.6h-6.4V46.91h-4.5v3.8c0,5-.6,8.5-2.9,10.4-1.3,1.4-3.1,2-6,2l-.7-4.9a4.15,4.15,0,0,0,2.3-1.1c1.2-1.2,1.4-3.1,1.4-6.6v-8.3h16.8V42Z" transform="translate(-0.52 -0.01)"/><path class="cls-2" d="M210.22,42v6.3c0,3.3-.2,5.6-.3,8.4h.2c1-2.4,1.5-4,2.4-5.9l4-8.9h7.9v20.6h-6.1v-6.3c0-3.2.2-4.6.4-8.9h-.2a59.49,59.49,0,0,1-2.2,5.6c-1.3,2.9-2.9,6.4-4.3,9.7h-7.8V42Z" transform="translate(-0.52 -0.01)"/><path class="cls-2" d="M245,62.11a15.89,15.89,0,0,1-5.8.9c-6.7,0-11-4-11-10.5,0-6,4.1-11,11.8-11a16.22,16.22,0,0,1,4.9.8l-1,4.8a9.79,9.79,0,0,0-3.6-.6,5.28,5.28,0,0,0-5.5,5.8c0,3.8,2.5,5.8,5.7,5.8a11.48,11.48,0,0,0,3.7-.6Z" transform="translate(-0.52 -0.01)"/><path class="cls-2" d="M265.62,42v4.9h-6v15.7h-6.5V46.91h-6V42Z" transform="translate(-0.52 -0.01)"/><path class="cls-1" d="M273.22,48.81c0-3-.1-5-.2-6.8h5.5l.2,3.8h.2a6,6,0,0,1,5.6-4.2,6.6,6.6,0,0,1,1.4.1v6a11.14,11.14,0,0,0-1.7-.2,4.13,4.13,0,0,0-4.4,3.2,7.08,7.08,0,0,0-.1,1.4v10.4h-6.4Z" transform="translate(-0.52 -0.01)"/><path class="cls-1" d="M308.62,56c0,2.7.1,4.9.2,6.6h-5.6l-.3-2.9h-.1a7.26,7.26,0,0,1-6.5,3.4c-4.2,0-7.3-2.6-7.3-9V42h6.5v11.1c0,3,1,4.8,3.2,4.8a3.38,3.38,0,0,0,3.2-2.2,3.18,3.18,0,0,0,.2-1.4V42.11h6.5Z" transform="translate(-0.52 -0.01)"/><path class="cls-1" d="M268.62,61a2,2,0,0,1-.3,1.1,1.6,1.6,0,0,1-.9.7,1.67,1.67,0,0,1-1.2.1,3.13,3.13,0,0,1-1-.5,2.07,2.07,0,0,1-.6-1,2.46,2.46,0,0,1,.1-1.2,2.18,2.18,0,0,1,.7-.9,2,2,0,0,1,1.1-.3,2.35,2.35,0,0,1,.8.2,2.51,2.51,0,0,1,.7.4,1.61,1.61,0,0,1,.4.7A1.85,1.85,0,0,1,268.62,61Z" transform="translate(-0.52 -0.01)"/><path class="cls-2" d="M49.92,22.71c-1.1-.1-2.1-.2-3.2-.2-12,0-21.6,7.5-21.6,20.9,0,11.2,7,19.7,20.7,19.7,4.8,0,8.5-.9,10.1-1.7V54a31.25,31.25,0,0,1-8.8,1.7c-8,0-12.7-5-12.7-12.9,0-8.8,5.5-13,12.6-13a24.09,24.09,0,0,1,7.9,1l-5-8.1Z" transform="translate(-0.52 -0.01)"/><path class="cls-3" d="M86.62,19.31Z" transform="translate(-0.52 -0.01)"/><path class="cls-1" d="M85.82,21c0-.2.2-.2.2-.4-.2-2.5-2.2-5.1-2.8-5.9a15.65,15.65,0,0,0-4.7-4.2,16.89,16.89,0,0,0-6.2-2.1,18.41,18.41,0,0,0-3.3-.3h-.8a2,2,0,0,0-.8.1l-.9.1-.4.1h-.4a21.36,21.36,0,0,0-6.4,2.3,20.4,20.4,0,0,0-5.3,4.4,22.79,22.79,0,0,0-3.6,6,8.45,8.45,0,0,0-.5,1.7v.1l5.1,8.2a67.61,67.61,0,0,1,.9-8.1,13,13,0,0,1,2.2-4.6,15,15,0,0,1,8.4-6h.3l.4-.1.6-.1c.2,0,.4-.1.7-.1s.4-.1.7-.1a15.91,15.91,0,0,1,8.1,1.2,16.82,16.82,0,0,1,8.2,7.6l.3.2Z" transform="translate(-0.52 -0.01)"/><path class="cls-1" d="M22,43.71c0-14.1,10.1-24,24.7-24h1a36,36,0,0,1,2-3.9L33.82,0,3.12,30.61l19.6,19.5A34.82,34.82,0,0,1,22,43.71Z" transform="translate(-0.52 -0.01)"/><path class="cls-1" d="M58.12,31.31l-.3,4.3-4-1.7a24.06,24.06,0,0,0-6.6-.9c-6.1,0-9.7,3.8-9.7,10.1,0,4.6,1.8,7.7,5.3,9l21.7-21.6-5.8-5.8C58.52,26.31,58.32,29,58.12,31.31Z" transform="translate(-0.52 -0.01)"/><path class="cls-1" d="M99.72,28.11H105a14.35,14.35,0,0,0-3.2-3.3,17.82,17.82,0,0,0-7.9-3.6,28.68,28.68,0,0,0-4.1-.5l-4.2-.1.1.4s2.6.6,3.9,1a23.88,23.88,0,0,1,3.7,1.5,20.17,20.17,0,0,1,6.3,4.5A.1.1,0,0,1,99.72,28.11Z" transform="translate(-0.52 -0.01)"/><path class="cls-4" d="M67.32,81.81l-2.6-7.6h-.1v7.6h-1.4v-9.1h2.1l2.5,7.3h0l2.6-7.3h2.1v9.1h-1.4v-7.6h0l-2.7,7.6Z" transform="translate(-0.52 -0.01)"/><path class="cls-4" d="M78.32,74.91v5.2l3.5-5.3h1.8v6.9h-1.4v-5.3l-3.5,5.3h-1.8v-6.9h1.4Z" transform="translate(-0.52 -0.01)"/><path class="cls-4" d="M91.12,74.71a2.52,2.52,0,0,1,2,.9,4.15,4.15,0,0,1,.7,2.7,6,6,0,0,1-.3,2,2.94,2.94,0,0,1-1,1.2,2.3,2.3,0,0,1-1.4.4,2.48,2.48,0,0,1-.9-.1,1.61,1.61,0,0,1-.7-.4c-.2-.1-.3-.3-.5-.5h-.1a1.27,1.27,0,0,0,.1.6v3.3h-1.5v-10h1.2l.2,1H89a1.21,1.21,0,0,1,.5-.5,1.61,1.61,0,0,1,.7-.4A2,2,0,0,1,91.12,74.71Zm-.4,1.2a3,3,0,0,0-1,.2,1.79,1.79,0,0,0-.5.7A3.73,3.73,0,0,0,89,78v.2a5.07,5.07,0,0,0,.2,1.3,1.58,1.58,0,0,0,.5.8,1.49,1.49,0,0,0,1,.3,1.22,1.22,0,0,0,.9-.3,2.18,2.18,0,0,0,.5-.8,5.07,5.07,0,0,0,.2-1.3,2.86,2.86,0,0,0-.4-1.7A1.43,1.43,0,0,0,90.72,75.91Z" transform="translate(-0.52 -0.01)"/><path class="cls-4" d="M103.52,78.31a6.05,6.05,0,0,1-.2,1.5,4.13,4.13,0,0,1-.7,1.1,3.59,3.59,0,0,1-1,.7,3.18,3.18,0,0,1-1.4.2,5.07,5.07,0,0,1-1.3-.2,3.59,3.59,0,0,1-1-.7,4.13,4.13,0,0,1-.7-1.1,3.64,3.64,0,0,1-.2-1.5,3.58,3.58,0,0,1,.4-1.9,3.18,3.18,0,0,1,1.1-1.2,3.42,3.42,0,0,1,1.8-.4,3.29,3.29,0,0,1,1.7.4,2.54,2.54,0,0,1,1.1,1.2A3.58,3.58,0,0,1,103.52,78.31Zm-5,0a5.07,5.07,0,0,0,.2,1.3,1.24,1.24,0,0,0,.6.8,1.82,1.82,0,0,0,2,0,2.41,2.41,0,0,0,.6-.8,4.33,4.33,0,0,0,0-2.6,1.24,1.24,0,0,0-.6-.8,1.69,1.69,0,0,0-1-.3,1.38,1.38,0,0,0-1.3.6A3,3,0,0,0,98.52,78.31Z" transform="translate(-0.52 -0.01)"/><path class="cls-4" d="M113,76.61a1.28,1.28,0,0,1-.4,1,2.34,2.34,0,0,1-1,.5v.1a1.88,1.88,0,0,1,1.1.5,1.43,1.43,0,0,1,.5,1.1,2.28,2.28,0,0,1-.3,1.1,2.18,2.18,0,0,1-.9.7,4,4,0,0,1-1.7.3h-3.1V75h3.1a5.9,5.9,0,0,1,1.4.2,2.07,2.07,0,0,1,1,.6C112.92,75.81,113,76.21,113,76.61Zm-1.3,3.1a.67.67,0,0,0-.4-.7,3.09,3.09,0,0,0-1.1-.2h-1.5v2h1.5a3.09,3.09,0,0,0,1.1-.2A1.8,1.8,0,0,0,111.72,79.71Zm-.2-2.9a.6.6,0,0,0-.3-.6,2.15,2.15,0,0,0-1-.2h-1.6v1.7H110a3.09,3.09,0,0,0,1.1-.2A.75.75,0,0,0,111.52,76.81Z" transform="translate(-0.52 -0.01)"/><path class="cls-4" d="M116.82,81.81v-6.9h1.5v2.8h1.4a7,7,0,0,1,1.6.2,1.6,1.6,0,0,1,.9.7,2.17,2.17,0,0,1,0,2.2,1.6,1.6,0,0,1-.9.7,3.81,3.81,0,0,1-1.6.3Zm1.4-1.1h1.3a3.59,3.59,0,0,0,1.1-.2.81.81,0,0,0,.4-.8.67.67,0,0,0-.4-.7,2.68,2.68,0,0,0-1.1-.2h-1.3Zm5.4,1.1v-6.9h1.5v6.9Z" transform="translate(-0.52 -0.01)"/><path class="cls-4" d="M131.82,74.71a2.93,2.93,0,0,1,1.6.4,2.66,2.66,0,0,1,1,1.1,4.26,4.26,0,0,1,.4,1.7v.8h-4.6a2.07,2.07,0,0,0,.5,1.5,1.62,1.62,0,0,0,1.4.5,4.48,4.48,0,0,0,2.3-.5v1.2a3.58,3.58,0,0,1-1.1.4,5.28,5.28,0,0,1-1.3.1,3.17,3.17,0,0,1-3-1.6,4,4,0,0,1-.4-2,4.21,4.21,0,0,1,.4-2,2.58,2.58,0,0,1,1.1-1.2A4.71,4.71,0,0,1,131.82,74.71Zm0,1.1a1.82,1.82,0,0,0-1.1.4,2.23,2.23,0,0,0-.5,1.3h3.1a2.39,2.39,0,0,0-.2-.9,1,1,0,0,0-.5-.6A1.55,1.55,0,0,0,131.82,75.81Z" transform="translate(-0.52 -0.01)"/><path class="cls-4" d="M146.42,81.91a3.06,3.06,0,0,1-1.7-.4,2.58,2.58,0,0,1-1.1-1.2,4,4,0,0,1-.4-2,4.64,4.64,0,0,1,.4-2.1,3.45,3.45,0,0,1,1.2-1.2,3.29,3.29,0,0,1,1.7-.4,3.75,3.75,0,0,1,1.1.1l.9.3-.4,1.2c-.3-.1-.5-.2-.8-.3a2.2,2.2,0,0,0-.8-.1,1.69,1.69,0,0,0-1,.3,1.24,1.24,0,0,0-.6.8,4.32,4.32,0,0,0,0,2.6,1.56,1.56,0,0,0,.6.8,1.69,1.69,0,0,0,1,.3,3.08,3.08,0,0,0,1-.1,2,2,0,0,0,.8-.4v1.3c-.3.1-.5.3-.8.3A2,2,0,0,1,146.42,81.91Z" transform="translate(-0.52 -0.01)"/><path class="cls-4" d="M157.12,76h-2.3v5.8h-1.5V76H151v-1.2h6l.1,1.2Z" transform="translate(-0.52 -0.01)"/><path class="cls-4" d="M163.12,74.71a3,3,0,0,1,2,.6,2.14,2.14,0,0,1,.7,1.8v4.7h-1l-.3-1h0c-.2.2-.4.5-.6.6a1.61,1.61,0,0,1-.7.4,3.08,3.08,0,0,1-1,.1,3.59,3.59,0,0,1-1.1-.2,2.7,2.7,0,0,1-.8-.7,2.13,2.13,0,0,1-.3-1.2,1.94,1.94,0,0,1,.8-1.6,3.84,3.84,0,0,1,2.4-.6h1.2v-.4a1.33,1.33,0,0,0-.3-1,1.22,1.22,0,0,0-.9-.3c-.3,0-.7.1-1,.1a3.55,3.55,0,0,0-.9.4l-.5-1a3.58,3.58,0,0,1,1.1-.4A1.92,1.92,0,0,1,163.12,74.71Zm1.2,3.8h-.9a2.08,2.08,0,0,0-1.5.4,1,1,0,0,0-.4.9.78.78,0,0,0,.3.7,1.08,1.08,0,0,0,.8.2,2,2,0,0,0,1.3-.4,1.73,1.73,0,0,0,.5-1.3l-.1-.5Z" transform="translate(-0.52 -0.01)"/><path class="cls-4" d="M171.22,74.91v2.8h3.2v-2.8h1.5v6.9h-1.5v-3h-3.2v3h-1.5v-6.9Z" transform="translate(-0.52 -0.01)"/><path class="cls-4" d="M185.62,74.91v5.8h1v3.6h-1.4v-2.4h-4.8v2.4H179v-3.6h.6c.3-.5.6-1.1.9-1.7a11.7,11.7,0,0,0,.5-2,14.92,14.92,0,0,0,.2-2.1Zm-1.5,1.1h-1.5a5.08,5.08,0,0,1-.3,1.7,7.49,7.49,0,0,1-.5,1.6,6.11,6.11,0,0,1-.7,1.4H184l.1-4.7Z" transform="translate(-0.52 -0.01)"/><path class="cls-4" d="M192.52,74.71a3,3,0,0,1,2,.6,2.48,2.48,0,0,1,.7,1.8v4.7h-1l-.3-1h0c-.2.2-.4.5-.6.6a2.51,2.51,0,0,1-.7.4,3.08,3.08,0,0,1-1,.1,3.59,3.59,0,0,1-1.1-.2,2.7,2.7,0,0,1-.8-.7,2.13,2.13,0,0,1-.3-1.2,1.94,1.94,0,0,1,.8-1.6,3.84,3.84,0,0,1,2.4-.6h1.2v-.4a1.33,1.33,0,0,0-.3-1,1.22,1.22,0,0,0-.9-.3c-.3,0-.7.1-1,.1a6.89,6.89,0,0,0-1,.4l-.5-1a3.58,3.58,0,0,1,1.1-.4A2.77,2.77,0,0,1,192.52,74.71Zm1.2,3.8h-.9a2.08,2.08,0,0,0-1.5.4,1,1,0,0,0-.4.9.78.78,0,0,0,.3.7,1.08,1.08,0,0,0,.8.2,2,2,0,0,0,1.3-.4,1.73,1.73,0,0,0,.5-1.3l-.1-.5Z" transform="translate(-0.52 -0.01)"/><path class="cls-4" d="M202.72,74.71a2.52,2.52,0,0,1,2,.9,4.14,4.14,0,0,1,.8,2.7,6,6,0,0,1-.3,2,2.94,2.94,0,0,1-1,1.2,2.3,2.3,0,0,1-1.4.4,2.22,2.22,0,0,1-.9-.1,1.61,1.61,0,0,1-.7-.4c-.2-.1-.3-.3-.5-.5h-.2a1.27,1.27,0,0,0,.1.6v3.3h-1.5v-10h1.2l.2,1h.1a1.21,1.21,0,0,1,.5-.5,1.61,1.61,0,0,1,.7-.4A2,2,0,0,1,202.72,74.71Zm-.4,1.2a3,3,0,0,0-1,.2,1.79,1.79,0,0,0-.5.7,3.73,3.73,0,0,0-.2,1.2v.2a5.07,5.07,0,0,0,.2,1.3,1.58,1.58,0,0,0,.5.8,1.49,1.49,0,0,0,1,.3,1.22,1.22,0,0,0,.9-.3,2.18,2.18,0,0,0,.5-.8,5.07,5.07,0,0,0,.2-1.3,2.86,2.86,0,0,0-.4-1.7A1.43,1.43,0,0,0,202.32,75.91Z" transform="translate(-0.52 -0.01)"/><path class="cls-4" d="M214.22,76h-2.3v5.8h-1.4V76h-2.3v-1.2h6Z" transform="translate(-0.52 -0.01)"/><path class="cls-4" d="M217.52,81.81v-6.9H219v2.8h1.4a6.27,6.27,0,0,1,1.6.2,1.6,1.6,0,0,1,.9.7,2.17,2.17,0,0,1,0,2.2,1.6,1.6,0,0,1-.9.7,3.81,3.81,0,0,1-1.6.3Zm1.4-1.1h1.3a3.59,3.59,0,0,0,1.1-.2.81.81,0,0,0,.4-.8.67.67,0,0,0-.4-.7,2.68,2.68,0,0,0-1.1-.2h-1.3Zm5.4,1.1v-6.9h1.5v6.9Z" transform="translate(-0.52 -0.01)"/><path class="cls-4" d="M241.12,78.31a6.05,6.05,0,0,1-.2,1.5,4.13,4.13,0,0,1-.7,1.1,3.59,3.59,0,0,1-1,.7,3.18,3.18,0,0,1-1.4.2,5.07,5.07,0,0,1-1.3-.2,3.59,3.59,0,0,1-1-.7,4.13,4.13,0,0,1-.7-1.1,3.64,3.64,0,0,1-.2-1.5,3.58,3.58,0,0,1,.4-1.9,3.18,3.18,0,0,1,1.1-1.2,3.42,3.42,0,0,1,1.8-.4,3.29,3.29,0,0,1,1.7.4,2.54,2.54,0,0,1,1.1,1.2A3.58,3.58,0,0,1,241.12,78.31Zm-5,0a5.07,5.07,0,0,0,.2,1.3,1.24,1.24,0,0,0,.6.8,1.82,1.82,0,0,0,2,0,2.41,2.41,0,0,0,.6-.8,4.33,4.33,0,0,0,0-2.6,1.24,1.24,0,0,0-.6-.8,1.69,1.69,0,0,0-1-.3,1.38,1.38,0,0,0-1.3.6A2.43,2.43,0,0,0,236.12,78.31Z" transform="translate(-0.52 -0.01)"/><path class="cls-4" d="M244.32,77.61a9.78,9.78,0,0,1,.3-2.6,4,4,0,0,1,1-1.7,5.08,5.08,0,0,1,1.8-.9l1.5-.3a7.72,7.72,0,0,1,1.5-.2l.2,1.3c-.2,0-.5.1-.8.1s-.5.1-.8.1-.5.1-.8.1-.5.1-.7.1a3,3,0,0,0-1,.4,1.56,1.56,0,0,0-.6.8c-.1.4-.2.8-.3,1.4h.1c.1-.2.3-.3.5-.5a1.61,1.61,0,0,1,.7-.4,3,3,0,0,1,1-.2,2.41,2.41,0,0,1,1.5.4,2.19,2.19,0,0,1,.9,1,4.31,4.31,0,0,1,.3,1.7,3.58,3.58,0,0,1-.4,1.9,3.18,3.18,0,0,1-1.1,1.2,3.29,3.29,0,0,1-1.7.4,3.19,3.19,0,0,1-1.4-.3,3.92,3.92,0,0,1-1-.8,3.1,3.1,0,0,1-.6-1.3C244.42,78.91,244.32,78.31,244.32,77.61Zm3.4,3.1a2.92,2.92,0,0,0,.9-.2,2.17,2.17,0,0,0,.6-.7,3.92,3.92,0,0,0,.2-1.3,3.34,3.34,0,0,0-.3-1.5,1.15,1.15,0,0,0-1.1-.6,2.92,2.92,0,0,0-.9.2,1.79,1.79,0,0,0-.7.5c-.2.2-.3.4-.4.5a4.1,4.1,0,0,0,.1,1.1c.1.4.2.7.3,1a1.34,1.34,0,0,0,.6.7C247,80.61,247.32,80.71,247.72,80.71Z" transform="translate(-0.52 -0.01)"/><path class="cls-4" d="M253.42,74.91H255l1.4,3.9c.1.2.1.4.2.5a.9.9,0,0,1,.1.5c0,.2.1.3.1.5h0a1.85,1.85,0,0,1,.2-.7c.1-.3.2-.5.3-.8l1.4-3.9h1.6l-3,7.9a10.91,10.91,0,0,1-.6,1.1,1.6,1.6,0,0,1-.9.7,2.17,2.17,0,0,1-1.2.2h-.5c-.2,0-.3,0-.4-.1v-1.2a.37.37,0,0,1,.3.1h.4a1.45,1.45,0,0,0,.7-.2,2.18,2.18,0,0,0,.5-.4l.3-.6.2-.6Z" transform="translate(-0.52 -0.01)"/><path class="cls-4" d="M264.52,74.91v2.5a1,1,0,0,0,.3.8,1.14,1.14,0,0,0,.8.3,3.59,3.59,0,0,0,1.1-.2c.3-.1.7-.3,1-.4v-3h1.5v6.9h-1.5v-2.9a3.7,3.7,0,0,1-1.1.5,5.07,5.07,0,0,1-1.3.2,2.35,2.35,0,0,1-1.7-.6,2.11,2.11,0,0,1-.6-1.6v-2.6h1.5Z" transform="translate(-0.52 -0.01)"/><path class="cls-4" d="M276,74.71a2.93,2.93,0,0,1,1.6.4,2.66,2.66,0,0,1,1,1.1,4.26,4.26,0,0,1,.4,1.7v.8h-4.6a2.07,2.07,0,0,0,.5,1.5,1.72,1.72,0,0,0,1.5.5,4.48,4.48,0,0,0,2.3-.5v1.2a3.58,3.58,0,0,1-1.1.4,5.28,5.28,0,0,1-1.3.1,3.17,3.17,0,0,1-3-1.6,4,4,0,0,1-.4-2,4.21,4.21,0,0,1,.4-2,2.58,2.58,0,0,1,1.1-1.2A3.41,3.41,0,0,1,276,74.71Zm0,1.1a1.82,1.82,0,0,0-1.1.4,1.73,1.73,0,0,0-.5,1.3h3.1a2.39,2.39,0,0,0-.2-.9,1,1,0,0,0-.5-.6A1.88,1.88,0,0,0,276,75.81Z" transform="translate(-0.52 -0.01)"/><path class="cls-4" d="M284,74.91v2.8h3.2v-2.8h1.5v6.9h-1.5v-3H284v3h-1.5v-6.9Z" transform="translate(-0.52 -0.01)"/><path class="cls-4" d="M294.12,74.91v5.2l3.5-5.3h1.8v6.9H298v-5.3l-3.5,5.3h-1.8v-6.9h1.4v.1Z" transform="translate(-0.52 -0.01)"/><path class="cls-4" d="M304,81.81h-1.6l1.9-2.8a1.61,1.61,0,0,1-.7-.4L303,78a3,3,0,0,1-.2-1,1.58,1.58,0,0,1,.7-1.5,2.85,2.85,0,0,1,1.9-.5h3.1v6.9H307v-2.7h-1.4Zm.2-4.8a.91.91,0,0,0,.4.8,1.8,1.8,0,0,0,1.1.3h1.4V76h-1.6a1.49,1.49,0,0,0-1,.3A.78.78,0,0,0,304.22,77Z" transform="translate(-0.52 -0.01)"/><path class="cls-1" d="M67.62,29.71h5.7v1.1h-4.4v1.8h2.2a2.81,2.81,0,0,1,2,.6,1.86,1.86,0,0,1,.7,1.6,2.14,2.14,0,0,1-.8,1.7,3.4,3.4,0,0,1-2.2.6h-3.3l.1-7.4Zm3.2,6.3a2.13,2.13,0,0,0,1.2-.3,1,1,0,0,0,.4-.9c0-.8-.5-1.1-1.6-1.1h-1.9V36Z" transform="translate(-0.52 -0.01)"/><path class="cls-1" d="M79.62,31.91a2.48,2.48,0,0,1,.7,1.8V37h-1.2v-.7a4.35,4.35,0,0,1-.7.6,3.13,3.13,0,0,1-2.2,0,1.06,1.06,0,0,1-.7-.6,1.4,1.4,0,0,1-.3-.9,1.43,1.43,0,0,1,.6-1.2,3,3,0,0,1,1.8-.5H79a1,1,0,0,0-.4-.9,1.69,1.69,0,0,0-1-.3,2.77,2.77,0,0,0-.9.1,2,2,0,0,0-.8.4l-.5-1a2.81,2.81,0,0,1,1.1-.5,5.07,5.07,0,0,1,1.3-.2A2.79,2.79,0,0,1,79.62,31.91Zm-1.2,4a1.33,1.33,0,0,0,.5-.6v-.7h-1.4c-.8,0-1.1.2-1.1.7a.86.86,0,0,0,.3.6,1.88,1.88,0,0,0,.8.2A1.49,1.49,0,0,0,78.42,35.91Z" transform="translate(-0.52 -0.01)"/><path class="cls-1" d="M87.42,31.41l-2.6,6.1a2.54,2.54,0,0,1-.9,1.3,2.84,2.84,0,0,1-1.3.4,2,2,0,0,1-.8-.1,1.61,1.61,0,0,1-.7-.4l.5-1c.1.1.3.2.4.3a.75.75,0,0,0,.5.1,1.42,1.42,0,0,0,.6-.2.92.92,0,0,0,.4-.6l.1-.2-2.4-5.6h1.4l1.8,4.1,1.8-4.1h1.2Z" transform="translate(-0.52 -0.01)"/><path class="cls-1" d="M94.32,37v-3.7l-1.9,3.1h-.6l-1.9-3.1V37h-1.2v-5.6h1.4l2,3.5,2.1-3.5h1.2V37Z" transform="translate(-0.52 -0.01)"/><path class="cls-1" d="M101.72,31.91a2.48,2.48,0,0,1,.7,1.8V37h-1.2v-.7a4.35,4.35,0,0,1-.7.6,3.13,3.13,0,0,1-2.2,0,1.06,1.06,0,0,1-.7-.6,1.4,1.4,0,0,1-.3-.9,1.43,1.43,0,0,1,.6-1.2,3,3,0,0,1,1.8-.5h1.4a1,1,0,0,0-.4-.9,1.49,1.49,0,0,0-1-.3,2.77,2.77,0,0,0-.9.1,2,2,0,0,0-.8.4l-.5-1a2.81,2.81,0,0,1,1.1-.5,5.85,5.85,0,0,1,1.3-.2A2.79,2.79,0,0,1,101.72,31.91Zm-1.2,4a1.33,1.33,0,0,0,.5-.6v-.7h-1.4c-.8,0-1.1.2-1.1.7a.86.86,0,0,0,.3.6,1.88,1.88,0,0,0,.8.2A1.49,1.49,0,0,0,100.52,35.91Z" transform="translate(-0.52 -0.01)"/><path class="cls-1" d="M104.42,31.41h1.3v2.3h2.8v-2.3h1.3V37h-1.3v-2.2h-2.8V37h-1.3v-5.6Z" transform="translate(-0.52 -0.01)"/><path class="cls-1" d="M113,36.71a2.66,2.66,0,0,1-1.1-1,2.41,2.41,0,0,1-.4-1.5,2.6,2.6,0,0,1,.4-1.5,2.13,2.13,0,0,1,1.1-1,4.19,4.19,0,0,1,1.6-.4,3.65,3.65,0,0,1,1.5.3,1.79,1.79,0,0,1,.9,1l-1,.6a1.7,1.7,0,0,0-.6-.6,1.88,1.88,0,0,0-.8-.2,1.66,1.66,0,0,0-1.2.5,1.94,1.94,0,0,0,0,2.6,1.66,1.66,0,0,0,1.2.5,1.88,1.88,0,0,0,.8-.2,1.7,1.7,0,0,0,.6-.6l1,.6a2.51,2.51,0,0,1-2.4,1.3A2.93,2.93,0,0,1,113,36.71Z" transform="translate(-0.52 -0.01)"/><path class="cls-1" d="M120.92,34.81h-1V37h-1.3v-5.6h1.3v2.3H121l1.7-2.3h1.4l-2,2.7,2.2,2.9h-1.5Z" transform="translate(-0.52 -0.01)"/><path class="cls-1" d="M125.52,31.41h1.3v3.7l3.1-3.7h1.2V37h-1.3v-3.7l-3.1,3.7h-1.2Z" transform="translate(-0.52 -0.01)"/><path class="cls-1" d="M133.32,31.41h1.3v3.7l3.1-3.7h1.2V37h-1.3v-3.7l-3.1,3.7h-1.2Zm1.4-1a1.91,1.91,0,0,1-.5-1.2h.9a.85.85,0,0,0,.2.6,1.42,1.42,0,0,0,.6.2.85.85,0,0,0,.6-.2c.2-.1.2-.3.2-.6h.9a1.66,1.66,0,0,1-.5,1.2,1.7,1.7,0,0,1-1.3.4A3.58,3.58,0,0,1,134.72,30.41Z" transform="translate(-0.52 -0.01)"/><path class="cls-1" d="M149.62,31.41l-2.6,6.1a2.54,2.54,0,0,1-.9,1.3,2.84,2.84,0,0,1-1.3.4,2,2,0,0,1-.8-.1,1.61,1.61,0,0,1-.7-.4l.5-1c.1.1.3.2.4.3a.75.75,0,0,0,.5.1,1.42,1.42,0,0,0,.6-.2.92.92,0,0,0,.4-.6l.1-.2-2.4-5.6h1.4l1.8,4.1,1.8-4.1h1.2Z" transform="translate(-0.52 -0.01)"/><path class="cls-1" d="M156,31.41V37h-1.3v-2.2a3.29,3.29,0,0,1-1.7.4,2.86,2.86,0,0,1-1.7-.5,1.75,1.75,0,0,1-.6-1.5v-1.8H152v1.7a1,1,0,0,0,.3.8,1.22,1.22,0,0,0,.9.3,3.19,3.19,0,0,0,1.4-.3v-2.5Z" transform="translate(-0.52 -0.01)"/><path class="cls-1" d="M163.42,34.61H159a2.07,2.07,0,0,0,.6,1,2.14,2.14,0,0,0,1.2.4,2,2,0,0,0,1.5-.6l.7.8a3.59,3.59,0,0,1-1,.7,3.75,3.75,0,0,1-2.9-.2,5.24,5.24,0,0,1-1.1-1,2.41,2.41,0,0,1-.4-1.5,2.82,2.82,0,0,1,.4-1.5,2.41,2.41,0,0,1,1-1,3.31,3.31,0,0,1,1.5-.4,2.82,2.82,0,0,1,1.5.4,2.41,2.41,0,0,1,1,1,3.31,3.31,0,0,1,.4,1.5Zm-3.9-1.8a1.23,1.23,0,0,0-.5,1h3.2a1.91,1.91,0,0,0-.5-1,1.37,1.37,0,0,0-1.1-.4A1.5,1.5,0,0,0,159.52,32.81Z" transform="translate(-0.52 -0.01)"/><path class="cls-1" d="M169.72,32a2.4,2.4,0,0,1,1,1,3.19,3.19,0,0,1,.3,1.4,2.3,2.3,0,0,1-.4,1.4,3.57,3.57,0,0,1-1.1,1,4.15,4.15,0,0,1-1.6.3,2.76,2.76,0,0,1-2.3-1,4.45,4.45,0,0,1-.8-2.8,4.53,4.53,0,0,1,.7-2.7,3.3,3.3,0,0,1,2.2-1.3l2.6-.6.2,1.2-2.4.5a2.63,2.63,0,0,0-1.5.7,2.59,2.59,0,0,0-.6,1.4,5.5,5.5,0,0,1,.9-.7,2.34,2.34,0,0,1,1.2-.2A5.29,5.29,0,0,1,169.72,32Zm-.5,3.6a1.7,1.7,0,0,0-2.4-2.4,1.7,1.7,0,1,0,2.4,2.4Z" transform="translate(-0.52 -0.01)"/><path class="cls-1" d="M172.72,31.41H174v2.3h2.8v-2.3h1.3V37h-1.3v-2.2H174V37h-1.3Z" transform="translate(-0.52 -0.01)"/><path class="cls-1" d="M184.62,33.71a1.93,1.93,0,0,1,0,2.8,3,3,0,0,1-1.8.5h-2.5v-5.6h1.3v1.8H183A3,3,0,0,1,184.62,33.71Zm-1,2.1a1,1,0,0,0,0-1.4,2,2,0,0,0-.9-.2h-1.1v1.9h1.1A1.22,1.22,0,0,0,183.62,35.81Zm2.3-4.4h1.3V37h-1.3Z" transform="translate(-0.52 -0.01)"/><path class="cls-1" d="M189.42,31.41h1.3v3.7l3.1-3.7H195V37h-1.3v-3.7l-3.1,3.7h-1.2Zm1.4-1a1.5,1.5,0,0,1-.5-1.2h.9a.85.85,0,0,0,.2.6,1.42,1.42,0,0,0,.6.2.85.85,0,0,0,.6-.2c.2-.1.2-.3.2-.6h.9a1.66,1.66,0,0,1-.5,1.2,1.7,1.7,0,0,1-1.3.4A1.6,1.6,0,0,1,190.82,30.41Z" transform="translate(-0.52 -0.01)"/><path class="cls-1" d="M206.62,35.91v2.4h-1.2V37h-4.9v-5.6h1.3v4.5h2.7v-4.5h1.3v4.5Z" transform="translate(-0.52 -0.01)"/><path class="cls-1" d="M213.42,34.61H209a2.07,2.07,0,0,0,.6,1,2.14,2.14,0,0,0,1.2.4,2,2,0,0,0,1.5-.6l.7.8a3.59,3.59,0,0,1-1,.7,3.75,3.75,0,0,1-2.9-.2,5.24,5.24,0,0,1-1.1-1,2.41,2.41,0,0,1-.4-1.5,2.82,2.82,0,0,1,.4-1.5,2.41,2.41,0,0,1,1-1,3.31,3.31,0,0,1,1.5-.4,2.82,2.82,0,0,1,1.5.4,2.41,2.41,0,0,1,1,1,3.31,3.31,0,0,1,.4,1.5Zm-3.9-1.8a1.23,1.23,0,0,0-.5,1h3.2a1.91,1.91,0,0,0-.5-1,1.37,1.37,0,0,0-1.1-.4A1.5,1.5,0,0,0,209.52,32.81Z" transform="translate(-0.52 -0.01)"/><path class="cls-1" d="M215.22,31.41h1.3v2.3h2.8v-2.3h1.3V37h-1.3v-2.2h-2.8V37h-1.3Z" transform="translate(-0.52 -0.01)"/><path class="cls-1" d="M227.32,32.51h-2V37H224v-4.5h-2v-1.1h5.2l.1,1.1Z" transform="translate(-0.52 -0.01)"/><path class="cls-1" d="M233.32,31.71a2.41,2.41,0,0,1,1,1,3.31,3.31,0,0,1,.4,1.5,2.41,2.41,0,0,1-.4,1.5,3.18,3.18,0,0,1-1,1,3.31,3.31,0,0,1-1.5.4,2.2,2.2,0,0,1-1.8-.8V39h-1.3v-7.6h1.2v.7a1.56,1.56,0,0,1,.8-.6,3.59,3.59,0,0,1,1.1-.2A3.31,3.31,0,0,1,233.32,31.71Zm-.4,3.8a1.73,1.73,0,0,0,.5-1.3,1.9,1.9,0,0,0-.5-1.3,1.66,1.66,0,0,0-1.2-.5,2.92,2.92,0,0,0-.9.2.9.9,0,0,0-.6.6,2.92,2.92,0,0,0-.2.9,2.39,2.39,0,0,0,.2.9.9.9,0,0,0,.6.6,2.39,2.39,0,0,0,.9.2A1.05,1.05,0,0,0,232.92,35.51Z" transform="translate(-0.52 -0.01)"/></svg>